<svg width="100" height="100" viewBox="0 0 100 100" fill="none" xmlns="http://www.w3.org/2000/svg">
<g clip-path="url(#clip0_268_2)">
<path d="M90.6608 81H10.9395C20.2437 92.574 34.6408 100 50.7998 100C66.9593 100 81.3563 92.574 90.6608 81Z" fill="#F19248"/>
<path d="M3.59064 68.5C1.2739 62.778 0 56.5355 0 50H82.5835C89.9445 52.805 95.8405 59.3345 88.0985 68.5H3.59064Z" fill="#F19248"/>
<path d="M13.0874 16.5H88.5129C79.2159 6.36765 65.7634 0 50.7999 0C35.8366 0 22.3842 6.36765 13.0874 16.5Z" fill="#F19248"/>
<path d="M96.9159 29C98.1924 31.7106 99.2294 34.5528 99.9999 37.5H20.6007C18.572 37.5 16.3511 37.293 15.0135 35.7678C12.6087 33.0259 14.5247 29.1893 20.409 29H96.9159Z" fill="#F19248"/>
</g>
<defs>
<clipPath id="clip0_268_2">
<rect width="100" height="100" fill="white"/>
</clipPath>
</defs>
</svg>
