<svg width="200" height="200" viewBox="0 0 200 200" fill="none" xmlns="http://www.w3.org/2000/svg">
<path d="M181.322 162H21.8793C40.4878 185.148 69.2819 200 101.6 200C133.919 200 162.713 185.148 181.322 162Z" fill="black"/>
<path d="M7.18127 137C2.5478 125.556 0 113.071 0 100H165.167C179.889 105.61 191.681 118.669 176.197 137H7.18127Z" fill="black"/>
<path d="M26.1751 33H177.026C158.432 12.7353 131.527 0 101.6 0C71.6735 0 44.7687 12.7353 26.1751 33Z" fill="black"/>
<path d="M193.832 58C196.385 63.4213 198.459 69.1055 200 75H41.2015C37.1441 75 32.7024 74.586 30.0271 71.5356C25.2176 66.0518 29.0496 58.3786 40.8181 58H193.832Z" fill="black"/>
</svg>
